<?xml version="1.0" standalone="no"?>
<!DOCTYPE svg PUBLIC "-//W3C//DTD SVG 20010904//EN"
 "http://www.w3.org/TR/2001/REC-SVG-20010904/DTD/svg10.dtd">
<svg version="1.0" xmlns="http://www.w3.org/2000/svg"
 width="512.000000pt" height="512.000000pt" viewBox="0 0 512.000000 512.000000"
 preserveAspectRatio="xMidYMid meet">
<metadata>
Created by potrace 1.14, written by Peter Selinger 2001-2017
</metadata>
<g transform="translate(0.000000,512.000000) scale(0.100000,-0.100000)"
fill="#000000" stroke="none">
<path d="M2315 4626 c-770 -149 -1438 -283 -1484 -296 -77 -22 -91 -30 -148
-84 l-63 -61 382 -1975 c209 -1086 384 -1978 387 -1982 4 -4 643 115 1421 266
1407 272 1415 273 1412 297 -1 12 -4 24 -5 25 -1 2 -618 -116 -1371 -262 -753
-145 -1371 -264 -1375 -264 -10 1 42 40 79 59 20 11 60 24 90 30 529 100 2854
552 2858 555 2 3 -168 892 -377 1978 -210 1085 -381 1976 -381 1981 0 4 -6 6
-12 6 -7 -1 -643 -124 -1413 -273z m162 -1474 c161 -261 294 -481 295 -490 3
-18 -52 -36 -142 -48 l-45 -5 -89 145 c-55 91 -95 146 -105 146 -35 0 -352
-67 -360 -76 -4 -5 -18 -74 -30 -154 -13 -80 -26 -154 -30 -165 -10 -26 -165
-60 -181 -40 -7 9 18 178 85 566 53 304 98 556 101 559 9 8 157 38 184 37 21
-2 65 -68 317 -475z m810 332 c91 -53 119 -116 172 -384 22 -113 47 -224 55
-248 8 -23 13 -48 10 -56 -4 -11 -105 -36 -148 -36 -10 0 -21 13 -28 30 l-10
31 -47 -44 c-66 -62 -145 -91 -246 -91 -59 -1 -90 4 -119 18 -120 60 -168 205
-107 323 24 47 81 102 141 136 51 29 217 87 249 87 28 0 27 28 -2 71 -54 80
-183 72 -339 -22 -35 -21 -39 -21 -55 -6 -10 8 -27 32 -37 51 -23 44 -17 54
68 100 156 86 337 102 443 40z"/>
<path d="M2105 3357 c-3 -23 -17 -113 -32 -200 -14 -87 -23 -160 -20 -163 5
-6 211 28 260 43 17 5 17 6 1 31 -10 15 -60 95 -110 179 l-92 152 -7 -42z"/>
<path d="M3147 3094 c-60 -19 -88 -35 -124 -69 -44 -43 -46 -46 -40 -91 10
-92 87 -126 186 -83 95 40 122 98 105 223 -8 55 -14 56 -127 20z"/>
</g>
</svg>
